<mxfile host="app.diagrams.net" modified="2024-07-17T10:58:45.190Z" agent="Mozilla/5.0 (Macintosh; Intel Mac OS X 10_15_7) AppleWebKit/537.36 (KHTML, like Gecko) Chrome/126.0.0.0 Safari/537.36" etag="QSE3aioaKbzTY0FAir3E" version="24.7.0" type="github">
  <diagram name="Page-1" id="ng0naPyWPxGMPATausUL">
    <mxGraphModel dx="1781" dy="640" grid="1" gridSize="10" guides="1" tooltips="1" connect="1" arrows="1" fold="1" page="1" pageScale="1" pageWidth="827" pageHeight="1169" math="0" shadow="0">
      <root>
        <mxCell id="0" />
        <mxCell id="1" parent="0" />
        <mxCell id="clOxtSEKpx9l5wH2WMur-1" value="Accessible Authentication - 3.3.8" style="rounded=1;whiteSpace=wrap;html=1;" parent="1" vertex="1">
          <mxGeometry x="-60" y="340" width="190" height="90" as="geometry" />
        </mxCell>
        <mxCell id="clOxtSEKpx9l5wH2WMur-2" value="Accessible Authentication - Show Password" style="rounded=1;whiteSpace=wrap;html=1;" parent="1" vertex="1">
          <mxGeometry x="390" y="110" width="170" height="100" as="geometry" />
        </mxCell>
        <mxCell id="clOxtSEKpx9l5wH2WMur-3" value="Accessible Authentication - Captcha" style="rounded=1;whiteSpace=wrap;html=1;" parent="1" vertex="1">
          <mxGeometry x="390" y="260" width="180" height="100" as="geometry" />
        </mxCell>
        <mxCell id="clOxtSEKpx9l5wH2WMur-4" value="Accessible Authentication - Third-party OAuth" style="rounded=1;whiteSpace=wrap;html=1;" parent="1" vertex="1">
          <mxGeometry x="390" y="420" width="180" height="100" as="geometry" />
        </mxCell>
        <mxCell id="clOxtSEKpx9l5wH2WMur-5" value="" style="endArrow=classic;html=1;rounded=0;exitX=1;exitY=0.5;exitDx=0;exitDy=0;entryX=0;entryY=0.5;entryDx=0;entryDy=0;" parent="1" source="clOxtSEKpx9l5wH2WMur-1" target="clOxtSEKpx9l5wH2WMur-2" edge="1">
          <mxGeometry relative="1" as="geometry">
            <mxPoint x="360" y="330" as="sourcePoint" />
            <mxPoint x="460" y="330" as="targetPoint" />
          </mxGeometry>
        </mxCell>
        <mxCell id="clOxtSEKpx9l5wH2WMur-6" value="Show Password" style="edgeLabel;resizable=0;html=1;;align=center;verticalAlign=middle;" parent="clOxtSEKpx9l5wH2WMur-5" connectable="0" vertex="1">
          <mxGeometry relative="1" as="geometry" />
        </mxCell>
        <mxCell id="clOxtSEKpx9l5wH2WMur-7" value="" style="endArrow=classic;html=1;rounded=0;exitX=1;exitY=0.5;exitDx=0;exitDy=0;entryX=0;entryY=0.5;entryDx=0;entryDy=0;" parent="1" source="clOxtSEKpx9l5wH2WMur-1" target="clOxtSEKpx9l5wH2WMur-3" edge="1">
          <mxGeometry relative="1" as="geometry">
            <mxPoint x="360" y="330" as="sourcePoint" />
            <mxPoint x="460" y="330" as="targetPoint" />
          </mxGeometry>
        </mxCell>
        <mxCell id="clOxtSEKpx9l5wH2WMur-8" value="Cognitive Captcha" style="edgeLabel;resizable=0;html=1;;align=center;verticalAlign=middle;" parent="clOxtSEKpx9l5wH2WMur-7" connectable="0" vertex="1">
          <mxGeometry relative="1" as="geometry" />
        </mxCell>
        <mxCell id="clOxtSEKpx9l5wH2WMur-9" value="" style="endArrow=classic;html=1;rounded=0;exitX=1;exitY=0.5;exitDx=0;exitDy=0;entryX=0;entryY=0.5;entryDx=0;entryDy=0;" parent="1" source="clOxtSEKpx9l5wH2WMur-1" target="clOxtSEKpx9l5wH2WMur-4" edge="1">
          <mxGeometry relative="1" as="geometry">
            <mxPoint x="330" y="310" as="sourcePoint" />
            <mxPoint x="490" y="330" as="targetPoint" />
          </mxGeometry>
        </mxCell>
        <mxCell id="clOxtSEKpx9l5wH2WMur-10" value="Third-party OAuth" style="edgeLabel;resizable=0;html=1;;align=center;verticalAlign=middle;" parent="clOxtSEKpx9l5wH2WMur-9" connectable="0" vertex="1">
          <mxGeometry relative="1" as="geometry" />
        </mxCell>
        <mxCell id="clOxtSEKpx9l5wH2WMur-11" value="WCAG - 3.3.8" style="edgeLabel;resizable=0;html=1;;align=left;verticalAlign=bottom;" parent="clOxtSEKpx9l5wH2WMur-9" connectable="0" vertex="1">
          <mxGeometry x="-1" relative="1" as="geometry">
            <mxPoint x="-140" y="95" as="offset" />
          </mxGeometry>
        </mxCell>
        <mxCell id="clOxtSEKpx9l5wH2WMur-13" value="Accessible Authentication - Allow Copy Paste" style="rounded=1;whiteSpace=wrap;html=1;" parent="1" vertex="1">
          <mxGeometry x="390" y="610" width="180" height="90" as="geometry" />
        </mxCell>
        <mxCell id="clOxtSEKpx9l5wH2WMur-14" value="" style="endArrow=classic;html=1;rounded=0;exitX=1;exitY=0.5;exitDx=0;exitDy=0;entryX=0;entryY=0.5;entryDx=0;entryDy=0;" parent="1" source="clOxtSEKpx9l5wH2WMur-1" target="clOxtSEKpx9l5wH2WMur-13" edge="1">
          <mxGeometry relative="1" as="geometry">
            <mxPoint x="360" y="450" as="sourcePoint" />
            <mxPoint x="460" y="450" as="targetPoint" />
          </mxGeometry>
        </mxCell>
        <mxCell id="clOxtSEKpx9l5wH2WMur-15" value="Allow Copy Paste" style="edgeLabel;resizable=0;html=1;;align=center;verticalAlign=middle;" parent="clOxtSEKpx9l5wH2WMur-14" connectable="0" vertex="1">
          <mxGeometry relative="1" as="geometry" />
        </mxCell>
        <mxCell id="clOxtSEKpx9l5wH2WMur-17" value="Type - A" style="text;html=1;align=center;verticalAlign=middle;whiteSpace=wrap;rounded=0;" parent="1" vertex="1">
          <mxGeometry x="580" y="145" width="60" height="30" as="geometry" />
        </mxCell>
        <mxCell id="clOxtSEKpx9l5wH2WMur-18" value="Type - A" style="text;html=1;align=center;verticalAlign=middle;whiteSpace=wrap;rounded=0;" parent="1" vertex="1">
          <mxGeometry x="590" y="295" width="60" height="30" as="geometry" />
        </mxCell>
        <mxCell id="clOxtSEKpx9l5wH2WMur-19" value="Type - B2" style="text;html=1;align=center;verticalAlign=middle;whiteSpace=wrap;rounded=0;" parent="1" vertex="1">
          <mxGeometry x="600" y="457.5" width="60" height="25" as="geometry" />
        </mxCell>
      </root>
    </mxGraphModel>
  </diagram>
</mxfile>
